<?xml version="1.0" standalone="no"?>
<!DOCTYPE svg PUBLIC "-//W3C//DTD SVG 20010904//EN"
 "http://www.w3.org/TR/2001/REC-SVG-20010904/DTD/svg10.dtd">
<svg version="1.0" xmlns="http://www.w3.org/2000/svg"
 width="705.000000pt" height="828.000000pt" viewBox="0 0 705.000000 828.000000"
 preserveAspectRatio="xMidYMid meet">

<g transform="translate(0.000000,828.000000) scale(0.100000,-0.100000)"
fill="#000000" stroke="none">
<path d="M4112 7189 c-137 -23 -274 -142 -485 -424 -377 -502 -952 -1535
-1437 -2581 l-102 -221 -291 -12 c-870 -36 -1249 -71 -1346 -121 -43 -22 -136
-116 -180 -183 -148 -220 -277 -662 -217 -743 15 -19 15 -19 53 3 100 58 235
118 358 158 261 85 796 206 1185 269 212 34 220 34 220 21 0 -6 -20 -60 -44
-120 -116 -288 -225 -632 -247 -775 -15 -99 -3 -176 42 -261 102 -191 368
-320 663 -321 108 0 173 14 206 44 26 25 26 28 -11 74 -66 81 -99 192 -99 331
0 159 52 428 130 666 22 68 40 136 40 151 0 88 -110 161 -350 231 -63 19 -110
34 -105 35 6 0 91 11 190 25 561 79 1168 135 1452 135 62 0 113 -4 113 -8 0
-4 -13 -107 -30 -227 -108 -806 -130 -1355 -58 -1503 62 -129 259 -238 538
-298 122 -26 404 -27 443 -1 40 26 33 49 -29 102 -30 26 -67 66 -81 89 -39 61
-80 181 -104 307 -27 145 -22 178 65 411 90 241 153 388 267 618 116 236 205
387 305 520 109 145 192 210 269 210 117 0 172 -120 162 -355 -8 -199 -62
-422 -143 -593 -63 -132 -82 -144 -383 -258 -177 -66 -238 -103 -265 -157 -16
-33 -17 -44 -7 -80 25 -88 133 -198 251 -254 49 -23 62 -25 130 -19 168 14
395 99 571 214 91 59 102 73 57 66 -46 -6 -430 -44 -443 -43 -5 0 78 31 185
68 674 235 1092 489 1358 825 73 91 102 144 102 184 0 68 -83 116 -160 93 -39
-12 -49 -21 -160 -159 -58 -71 -150 -150 -260 -224 -80 -53 -297 -164 -306
-156 -2 3 11 52 30 109 68 203 80 287 80 539 0 201 -2 234 -22 305 -71 257
-211 403 -417 436 -372 58 -715 -250 -1104 -991 -40 -76 -71 -125 -71 -113 0
47 33 255 66 418 47 226 111 475 234 910 165 584 174 625 175 740 0 97 -2 104
-38 177 -43 88 -153 212 -242 273 -30 21 -55 44 -55 52 0 7 7 105 16 216 22
281 15 592 -15 697 -103 356 -340 530 -649 479z m-28 -842 c65 -65 67 -403 5
-1007 -39 -387 -163 -1318 -178 -1333 -4 -4 -246 -6 -538 -5 l-530 3 52 155
c207 620 706 1641 1002 2052 57 80 133 158 153 158 6 0 21 -10 34 -23z"/>
</g>
</svg>
